<svg width="39" height="40" viewBox="0 0 39 40" fill="none" xmlns="http://www.w3.org/2000/svg">
<path d="M34.4965 4.93117C33.6962 4.10976 32.5117 3.80374 31.4072 4.12586L5.6527 11.6152C4.48742 11.939 3.66148 12.8683 3.43899 14.0489C3.2117 15.2504 4.00562 16.7757 5.04285 17.4135L13.0957 22.3629C13.9217 22.8702 14.9877 22.743 15.6712 22.0537L24.8926 12.7749C25.3568 12.2917 26.1251 12.2917 26.5893 12.7749C27.0535 13.242 27.0535 13.999 26.5893 14.4821L17.3519 23.7625C16.6668 24.4503 16.5388 25.5213 17.043 26.3524L21.9634 34.486C22.5396 35.4524 23.532 36 24.6205 36C24.7485 36 24.8926 36 25.0206 35.9839C26.2691 35.8228 27.2615 34.9692 27.6297 33.7612L35.2648 8.03967C35.601 6.94445 35.2968 5.75259 34.4965 4.93117Z" fill="#00F6FF"/>
</svg>
