<svg width="40" height="40" viewBox="0 0 40 40" fill="none" xmlns="http://www.w3.org/2000/svg">
<path fill-rule="evenodd" clip-rule="evenodd" d="M19.565 35.8619C19.7422 35.9544 19.9403 36.0015 20.1384 35.9999C20.3365 35.9984 20.5331 35.9497 20.7119 35.8556L26.4205 32.8039C28.0393 31.941 29.307 30.9761 30.296 29.8527C32.4464 27.4051 33.6206 24.2813 33.5997 21.0602L33.5321 10.4352C33.5256 9.21138 32.7218 8.11938 31.5331 7.72243L20.9132 4.1593C20.2737 3.94279 19.573 3.94749 18.9448 4.17029L8.36522 7.8605C7.1829 8.27314 6.39362 9.37298 6.40006 10.5983L6.46772 21.2155C6.48866 24.4413 7.70319 27.551 9.88902 29.9735C10.8877 31.0812 12.1667 32.032 13.8032 32.8808L19.565 35.8619ZM18.0538 23.3743C18.2922 23.6034 18.6014 23.7163 18.9107 23.7132C19.22 23.7116 19.5276 23.5955 19.7628 23.3633L26.0014 17.213C26.4701 16.7501 26.4653 16.0064 25.9917 15.5498C25.5165 15.0933 24.7514 15.0964 24.2826 15.5593L18.893 20.8718L16.6862 18.7505C16.211 18.294 15.4475 18.2987 14.9772 18.7615C14.5084 19.2244 14.5133 19.9681 14.9884 20.4246L18.0538 23.3743Z" fill="#00F6FF"/>
</svg>
